<svg width="500" height="500" viewBox="0 0 500 500" fill="none" xmlns="http://www.w3.org/2000/svg">
  <!-- Black background with rounded corners -->
  <rect width="500" height="500" rx="80" fill="#000000"/>
  <!-- White Glaido mark - scaled down to 70% and centered -->
  <g transform="translate(75, 75) scale(0.7)">
    <path d="M371.373 183.345H195.799C189.053 183.345 183.585 188.803 183.585 195.536V238.202C183.585 244.935 189.053 250.393 195.799 250.393H372.871C378.487 250.393 383.156 254.709 383.587 260.298V370.774C383.587 377.506 389.055 382.964 395.801 382.964H437.786C444.532 382.964 450 377.506 450 370.774V262.583C450 255.851 444.532 250.393 437.786 250.393H396.564C389.397 250.393 383.587 244.594 383.587 237.44V195.536C383.587 188.803 378.119 183.345 371.373 183.345Z" fill="white"/>
    <path d="M317.942 371.524V328.857C317.942 322.125 312.474 316.667 305.728 316.667H163.742C137.603 316.667 116.413 295.517 116.413 269.429V135.333C116.413 125.234 124.615 117.048 134.734 117.048H370.614C377.36 117.048 382.828 111.59 382.828 104.857V62.1905C382.828 55.4579 377.36 50 370.614 50H135.497C88.2784 50 50 88.205 50 135.333V271.222C50 300.32 61.5813 328.226 82.1963 348.801L183.589 450V395.905C183.589 389.172 189.058 383.714 195.803 383.714H305.728C312.474 383.714 317.942 378.256 317.942 371.524Z" fill="white"/>
  </g>
</svg>
